HIERARCHY
ROOT Hips
{
	OFFSET -3.958830 18.904000 13.208200
	CHANNELS 6 Xposition Yposition Zposition Zrotation Yrotation Xrotation 
	JOINT LHipJoint
	{
		OFFSET 0.000000 0.000000 0.000000
		CHANNELS 3 Zrotation Yrotation Xrotation
		JOINT LeftUpLeg
		{
			OFFSET 1.800000 -1.400000 0.085000
			CHANNELS 3 Zrotation Yrotation Xrotation
			JOINT LeftLeg
			{
				OFFSET 2.215000 -6.000000 0.000000
				CHANNELS 3 Zrotation Yrotation Xrotation
				JOINT LeftFoot
				{
					OFFSET 2.500000 -6.900000 0.000000
					CHANNELS 3 Zrotation Yrotation Xrotation
					JOINT LeftToeBase
					{
						OFFSET 0.200000 -0.500000 1.950000
						CHANNELS 3 Zrotation Yrotation Xrotation
						End Site
						{
							OFFSET 0.000000 0.000000 0.000000
						}
					}
				}
			}
		}
	}
	JOINT RHipJoint
	{
		OFFSET 0.000000 0.000000 0.000000
		CHANNELS 3 Zrotation Yrotation Xrotation
		JOINT RightUpLeg
		{
			OFFSET -1.800000 -1.400000 0.085000
			CHANNELS 3 Zrotation Yrotation Xrotation
			JOINT RightLeg
			{
				OFFSET -2.215000 -6.000000 0.000000
				CHANNELS 3 Zrotation Yrotation Xrotation
				JOINT RightFoot
				{
					OFFSET -2.500000 -6.900000 0.000000
					CHANNELS 3 Zrotation Yrotation Xrotation
					JOINT RightToeBase
					{
						OFFSET -0.200000 -0.500000 1.950000
						CHANNELS 3 Zrotation Yrotation Xrotation
						End Site
						{
							OFFSET 0.000000 0.000000 0.000000
						}
					}
				}
			}
		}
	}
	JOINT LowerBack
	{
		OFFSET 0.000000 0.000000 0.000000
		CHANNELS 3 Zrotation Yrotation Xrotation
		JOINT Spine
		{
			OFFSET -0.087000 1.940000 -0.288900
			CHANNELS 3 Zrotation Yrotation Xrotation
			JOINT Spine1
			{
				OFFSET 0.000000 1.950000 0.060000
				CHANNELS 3 Zrotation Yrotation Xrotation
				JOINT Neck
				{
					OFFSET 0.000000 0.000000 0.000000
					CHANNELS 3 Zrotation Yrotation Xrotation
					JOINT Neck1
					{
						OFFSET 0.000000 1.600000 0.340000
						CHANNELS 3 Zrotation Yrotation Xrotation
						JOINT Head
						{
							OFFSET 0.000000 1.667000 -0.240000
							CHANNELS 3 Zrotation Yrotation Xrotation
							End Site
							{
								OFFSET 0.000000 0.000000 0.000000
							}
						}
					}
				}
				JOINT LeftShoulder
				{
					OFFSET 0.000000 0.000000 0.000000
					CHANNELS 3 Zrotation Yrotation Xrotation
					JOINT LeftArm
					{
						OFFSET 2.700000 1.550000 -0.730000
						CHANNELS 3 Zrotation Yrotation Xrotation
						JOINT LeftForeArm
						{
							OFFSET 5.450000 0.000000 0.000000
							CHANNELS 3 Zrotation Yrotation Xrotation
							JOINT LeftHand
							{
								OFFSET 3.450000 0.000000 0.000000
								CHANNELS 3 Zrotation Yrotation Xrotation
								JOINT LeftHandIndex1
								{
									OFFSET 0.750000 0.000000 0.000000
									CHANNELS 3 Zrotation Yrotation Xrotation
									End Site
									{
										OFFSET 0.000000 0.000000 0.000000
									}
								}
							}
						}
					}
				}
				JOINT RightShoulder
				{
					OFFSET 0.000000 0.000000 0.000000
					CHANNELS 3 Zrotation Yrotation Xrotation
					JOINT RightArm
					{
						OFFSET -2.700000 1.550000 -0.730000
						CHANNELS 3 Zrotation Yrotation Xrotation
						JOINT RightForeArm
						{
							OFFSET -5.450000 0.000000 0.000000
							CHANNELS 3 Zrotation Yrotation Xrotation
							JOINT RightHand
							{
								OFFSET -3.450000 0.000000 0.000000
								CHANNELS 3 Zrotation Yrotation Xrotation
								JOINT RightHandIndex1
								{
									OFFSET -0.750000 0.000000 0.000000
									CHANNELS 3 Zrotation Yrotation Xrotation
									End Site
									{
										OFFSET 0.000000 0.000000 0.000000
									}
								}
							}
						}
					}
				}
			}
		}
	}
}
MOTION
Frames: 7
Frame Time: 0.016667
-0.439830 17.531650 -2.270240 -17.616413 42.872593 2.337489 -14.992653 10.086931 2.722073 6.979418 -4.965380 -35.286859 -3.727062 6.039180 25.189447 -0.908190 4.708017 3.068242 0.541580 0.224990 0.140740 19.138598 -8.283186 6.306177 -20.215623 12.615911 -64.032662 22.029805 -18.111270 46.180503 -1.106325 -8.940550 1.354634 0.372900 0.775520 0.147570 -5.647001 1.030976 -9.262060 37.600468 -11.484729 23.193946 -16.372899 -0.230134 13.444749 6.195989 -2.135091 -7.121072 -5.513700 -11.328654 35.346525 7.664430 -18.859830 -13.805080 7.197231 -26.831040 2.461731 2.879751 -35.690309 -7.449631 80.382459 -36.170840 -34.108183 -3.747774 2.507253 0.431950 0.250490 -0.280550 0.443990 -19.330796 27.364120 -3.079185 -16.807242 34.208425 -12.483718 -42.245131 21.381923 -10.621257 2.242080 -1.730505 -0.408090 0.684630 0.016640 0.068410 
-0.566510 17.480450 -2.208610 -17.910933 47.477720 0.913318 -15.068732 9.960791 2.564211 7.610319 -4.874902 -34.933896 -3.550483 6.670161 27.878431 -0.840105 5.201180 2.902928 0.551630 0.258360 0.097100 19.128475 -8.065683 6.466291 -19.920258 13.421608 -66.272103 22.288870 -22.884757 55.814593 -1.650736 -11.166035 0.757311 0.399190 0.837330 0.146080 -5.715775 0.913207 -9.412378 35.755737 -10.771826 22.411124 -15.197578 -0.847516 13.894742 6.056722 -0.193118 -6.687917 -2.654561 -12.096794 36.495885 8.620810 -19.404000 -13.191680 6.681034 -31.171662 1.933363 -0.058933 -43.076148 -6.186616 81.798719 -34.651729 -34.764006 -3.820554 2.450711 0.400550 0.286490 -0.303280 0.487040 -18.270908 29.330194 -3.033598 -10.588186 36.373244 -11.308021 -48.396387 26.733758 -14.613298 2.124072 -1.691607 -0.409730 0.726180 0.016160 0.100610 
-0.652050 17.382490 -2.126200 -19.497246 50.666552 -0.754366 -15.096184 9.681268 2.297425 9.528165 -4.173880 -33.974864 -4.722292 7.326842 27.544352 -0.827157 5.386333 2.797298 0.650070 0.413100 0.074130 19.174476 -7.963490 6.616048 -19.149976 15.314237 -68.918665 21.902710 -27.923241 66.060438 -2.278998 -13.556829 0.130013 0.509030 0.851510 0.182610 -6.002898 1.334067 -9.525061 36.477359 -9.802857 19.837905 -16.731230 -0.586488 14.869502 6.411682 0.749347 -5.797298 -1.027361 -12.795726 35.829080 8.883510 -20.016510 -12.972010 5.828222 -33.740189 1.043741 -5.208377 -50.740880 -2.458868 80.386141 -34.953225 -34.756771 -3.852446 2.481365 0.308830 0.319170 -0.322840 0.531860 -17.950268 30.025525 -3.180968 -1.985589 38.481716 -8.702293 -58.315728 32.837962 -21.793530 1.980326 -1.708104 -0.345690 0.699560 -0.008540 0.150500 
-0.738280 17.285170 -2.039200 -20.946290 54.427128 -3.071288 -15.200834 9.582882 2.123647 10.789432 -3.850102 -32.707092 -5.976867 7.640273 26.307993 -0.862574 5.438195 2.756377 0.726710 0.497220 0.085460 19.095449 -7.898284 6.617006 -17.591547 16.711261 -70.138816 20.609251 -32.490845 75.439483 -2.853564 -15.706953 -0.384610 0.583740 0.863620 0.238680 -6.218584 1.455764 -9.585858 36.037288 -9.158520 18.363688 -16.942909 -0.774448 16.082522 6.498681 0.652946 -5.261444 -1.222308 -12.436286 35.600863 8.156450 -20.053570 -12.407190 4.656002 -35.278902 0.785279 -15.164018 -55.684367 4.446700 82.736014 -35.223949 -37.643648 -3.879046 2.464740 0.260260 0.356990 -0.341200 0.554350 -16.795517 30.887032 -2.655993 4.170418 41.203928 -6.310354 -71.980555 39.095820 -32.937637 1.795896 -1.575909 -0.309430 0.663180 -0.017880 0.164310 
-0.798560 17.173090 -1.952190 -23.663349 58.539832 -6.379381 -15.381048 9.567669 2.047252 11.907684 -3.559243 -32.200636 -6.931390 7.820490 24.889663 -0.894474 5.451836 2.772536 0.676410 0.401840 0.066430 18.924410 -7.751180 6.596892 -15.295368 18.836110 -71.566059 16.987364 -36.734328 86.861940 -3.458837 -17.935165 -0.795086 0.538710 0.886930 0.221820 -6.478489 1.365233 -9.757381 36.241278 -8.639372 17.478687 -16.768049 -0.791777 16.157105 6.125139 0.565739 -6.056884 -2.222373 -11.769800 38.206639 8.344420 -20.365760 -11.484330 3.438441 -36.208343 1.904605 -29.275330 -58.751400 13.611337 85.405604 -32.432221 -40.381981 -3.798669 2.320091 0.307000 0.360570 -0.363300 0.550280 -15.094861 31.486410 -1.589330 10.390475 42.852888 -3.120539 -82.271532 44.017582 -43.571695 1.622659 -1.255811 -0.362090 0.683330 0.007690 0.137190 
-0.865600 17.083430 -1.866560 -27.608641 63.699222 -12.086622 -15.712336 9.789123 2.001183 12.259212 -3.263481 -31.827272 -6.360576 7.784953 25.227156 -0.956280 5.435106 2.745538 0.746450 0.445930 0.201740 18.542037 -7.697940 6.475086 -13.674452 20.285467 -69.484304 17.122735 -41.567469 92.899825 -4.001740 -19.423166 -1.042957 0.553300 0.756260 0.183260 -6.914684 1.377229 -10.004791 36.669295 -8.642386 18.650479 -16.450061 -0.586532 17.191888 6.639119 0.273550 -8.333477 -3.052219 -11.802586 41.023440 8.657960 -20.064570 -14.836100 1.252828 -36.607528 6.201244 -39.894205 -63.151938 18.934204 88.926323 -33.012567 -46.607763 -3.628648 2.046114 0.460410 0.245080 -0.253150 0.523990 -13.894636 32.371702 -1.400856 15.220955 43.384353 -2.923710 -86.580878 47.458648 -50.435791 1.602002 -0.965321 -0.387970 0.712410 -0.042840 0.065420 
-0.961550 16.990420 -1.755690 -30.311064 68.130048 -16.371416 -16.004533 9.982058 2.166460 12.414750 -3.078196 -33.110431 -6.379862 8.539471 27.556981 -0.866757 5.840864 2.561907 0.738450 0.393210 0.260280 18.205648 -7.375662 6.484216 -14.190774 22.063753 -68.606646 19.232115 -47.058171 96.873269 -4.466662 -20.730177 -1.240897 0.476970 0.657150 0.190880 -7.097202 1.099038 -10.329846 34.548506 -7.957276 21.482386 -14.327387 0.420989 18.281662 6.611671 -0.958124 -11.511532 -5.326085 -11.754567 43.177812 9.975080 -20.390730 -17.070050 -0.826249 -34.476969 12.905252 -52.241746 -68.630711 23.623770 97.170158 -39.711700 -60.483959 -3.766434 1.901770 0.571970 0.145830 -0.166250 0.484230 -11.668583 33.021137 -1.886362 17.796914 43.916839 -3.685264 -89.553820 55.493023 -58.750284 1.595967 -0.343776 -0.371170 0.670660 -0.053610 0.030150 
